<svg width="420" height="421" viewBox="0 0 420 421" fill="none" xmlns="http://www.w3.org/2000/svg">
<g clip-path="url(#clip0_4000_9632)">
<mask id="mask0_4000_9632" style="mask-type:luminance" maskUnits="userSpaceOnUse" x="219" y="59" width="142" height="150">
<path d="M358.609 61.7573C365.993 100.65 354.671 142.404 324.638 172.508C295.903 201.312 256.527 212.944 219.192 207.412L219.488 207.091C232.299 197.405 243.048 185.62 251.393 172.392L258.36 159.881C266.95 142.243 271.585 122.646 271.585 102.389C271.585 94.3576 270.854 86.4292 269.438 78.6888C296.315 61.625 328.333 55.9838 358.609 61.76" fill="white"/>
</mask>
<g mask="url(#mask0_4000_9632)">
<path d="M365.993 55.9822H219.193V212.945H365.993V55.9822Z" fill="#3C6818"/>
</g>
<mask id="mask1_4000_9632" style="mask-type:luminance" maskUnits="userSpaceOnUse" x="223" y="63" width="136" height="144">
<path d="M223.539 205.828C260.261 210.023 296.811 197.362 323.112 170.998C351.264 142.779 363.722 102.807 356.758 63.5989C313.468 106.992 278.703 145.569 238.756 189.232C237.74 190.384 236.699 191.519 235.64 192.637C231.665 196.978 227.635 201.372 223.539 205.828Z" fill="white"/>
</mask>
<g mask="url(#mask1_4000_9632)">
<path d="M363.724 63.5989H223.539V210.026H363.724V63.5989Z" fill="#3C6818"/>
</g>
<mask id="mask2_4000_9632" style="mask-type:luminance" maskUnits="userSpaceOnUse" x="218" y="159" width="203" height="106">
<path d="M420.018 210.657C397.805 243.392 360.344 264.893 317.87 264.893C275.397 264.893 241.184 245.206 218.688 214.832L219.124 214.813C235.014 217.045 250.931 216.33 266.161 212.891L279.912 208.984C298.431 202.602 315.53 192.029 329.82 177.705C335.488 172.024 340.561 165.901 345.022 159.423C376.063 166.407 402.683 185.112 420.018 210.655" fill="white"/>
</mask>
<g mask="url(#mask2_4000_9632)">
<path d="M420.018 159.423H218.688V264.893H420.018V159.423Z" fill="#3C6818"/>
</g>
<mask id="mask3_4000_9632" style="mask-type:luminance" maskUnits="userSpaceOnUse" x="222" y="210" width="196" height="53">
<path d="M222.868 216.798C245.873 245.793 280.649 262.746 317.846 262.746C357.658 262.746 394.668 243.31 417.401 210.652C356.179 210.652 304.383 213.291 245.337 215.851C243.806 215.943 242.269 216.01 240.732 216.049C234.858 216.301 228.908 216.552 222.868 216.798Z" fill="white"/>
</mask>
<g mask="url(#mask3_4000_9632)">
<path d="M417.401 210.652H222.868V262.746H417.401V210.652Z" fill="#3C6818"/>
</g>
<mask id="mask4_4000_9632" style="mask-type:luminance" maskUnits="userSpaceOnUse" x="211" y="219" width="150" height="143">
<path d="M358.394 359.45C319.594 366.852 277.938 355.503 247.903 325.399C219.168 296.595 207.563 257.125 213.083 219.702L213.402 219.998C223.066 232.84 234.823 243.614 248.02 251.979L260.5 258.963C278.097 267.574 297.648 272.22 317.856 272.22C325.868 272.22 333.778 271.486 341.5 270.068C358.523 297.008 364.151 329.103 358.389 359.453" fill="white"/>
</mask>
<g mask="url(#mask4_4000_9632)">
<path d="M364.156 219.702H207.565V366.852H364.156V219.702Z" fill="#3C6818"/>
</g>
<mask id="mask5_4000_9632" style="mask-type:luminance" maskUnits="userSpaceOnUse" x="213" y="224" width="144" height="136">
<path d="M214.649 224.071C210.463 260.88 223.095 297.515 249.395 323.881C277.548 352.1 317.425 364.587 356.54 357.606C313.25 314.214 274.764 279.366 231.205 239.324C230.056 238.305 228.923 237.262 227.809 236.201C223.478 232.216 219.094 228.177 214.649 224.071Z" fill="white"/>
</mask>
<g mask="url(#mask5_4000_9632)">
<path d="M356.55 224.073H210.471V364.589H356.55V224.073Z" fill="#3C6818"/>
</g>
<mask id="mask6_4000_9632" style="mask-type:luminance" maskUnits="userSpaceOnUse" x="155" y="219" width="106" height="202">
<path d="M209.849 420.994C177.192 398.728 155.742 361.177 155.742 318.603C155.742 276.028 175.383 241.733 205.685 219.184L205.703 219.621C203.477 235.549 204.19 251.504 207.62 266.77L211.521 280.554C217.888 299.117 228.436 316.257 242.726 330.581C248.393 336.262 254.502 341.347 260.964 345.818C253.997 376.934 235.337 403.617 209.852 420.994" fill="white"/>
</mask>
<g mask="url(#mask6_4000_9632)">
<path d="M260.962 219.184H155.742V420.994H260.962V219.184Z" fill="#3C6818"/>
</g>
<mask id="mask7_4000_9632" style="mask-type:luminance" maskUnits="userSpaceOnUse" x="157" y="223" width="53" height="196">
<path d="M203.718 223.409C174.792 246.469 157.879 281.327 157.879 318.613C157.879 358.52 177.269 395.617 209.85 418.405C209.85 357.037 207.22 305.118 204.666 245.932C204.573 244.396 204.507 242.856 204.468 241.315C204.217 235.427 203.966 229.463 203.72 223.409" fill="white"/>
</mask>
<g mask="url(#mask7_4000_9632)">
<path d="M209.85 223.409H157.879V418.405H209.85V223.409Z" fill="#3C6818"/>
</g>
<mask id="mask8_4000_9632" style="mask-type:luminance" maskUnits="userSpaceOnUse" x="59" y="212" width="142" height="150">
<path d="M61.4102 359.245C54.0262 320.352 65.3478 278.598 95.3803 248.491C124.116 219.687 163.492 208.058 200.827 213.588L200.531 213.908C187.72 223.594 176.971 235.38 168.626 248.608L161.659 261.118C153.068 278.757 148.434 298.354 148.434 318.61C148.434 326.642 149.165 334.57 150.581 342.311C123.704 359.375 91.6856 365.016 61.4076 359.24" fill="white"/>
</mask>
<g mask="url(#mask8_4000_9632)">
<path d="M200.821 208.053H54.0205V365.016H200.821V208.053Z" fill="#3C6818"/>
</g>
<mask id="mask9_4000_9632" style="mask-type:luminance" maskUnits="userSpaceOnUse" x="61" y="214" width="136" height="144">
<path d="M196.45 215.171C159.728 210.975 123.178 223.637 96.8772 250C68.7251 278.219 56.2679 318.192 63.232 357.4C106.522 314.007 141.287 275.429 181.233 231.766C182.25 230.615 183.29 229.479 184.349 228.362C188.324 224.021 192.354 219.626 196.45 215.171Z" fill="white"/>
</mask>
<g mask="url(#mask9_4000_9632)">
<path d="M196.452 210.977H56.2699V357.404H196.452V210.977Z" fill="#3C6818"/>
</g>
<mask id="mask10_4000_9632" style="mask-type:luminance" maskUnits="userSpaceOnUse" x="0" y="156" width="202" height="106">
<path d="M0 210.351C22.2127 177.616 59.674 156.115 102.148 156.115C144.622 156.115 178.835 175.802 201.33 206.176L200.894 206.195C185.004 203.963 169.09 204.678 153.857 208.117L140.106 212.027C121.588 218.409 104.488 228.982 90.1977 243.306C84.5303 248.987 79.4571 255.11 74.9966 261.588C43.9553 254.604 17.3349 235.899 0 210.354" fill="white"/>
</mask>
<g mask="url(#mask10_4000_9632)">
<path d="M201.33 156.115H0V261.585H201.33V156.115Z" fill="#3C6818"/>
</g>
<mask id="mask11_4000_9632" style="mask-type:luminance" maskUnits="userSpaceOnUse" x="2" y="158" width="196" height="53">
<path d="M197.122 204.205C174.117 175.21 139.341 158.257 102.144 158.257C62.3322 158.257 25.3224 177.693 2.58948 210.352C63.8111 210.352 115.607 207.712 174.653 205.152C176.185 205.06 177.722 204.994 179.259 204.954C185.132 204.702 191.082 204.451 197.122 204.205Z" fill="white"/>
</mask>
<g mask="url(#mask11_4000_9632)">
<path d="M197.122 158.257H2.58948V210.354H197.122V158.257Z" fill="#3C6818"/>
</g>
<mask id="mask12_4000_9632" style="mask-type:luminance" maskUnits="userSpaceOnUse" x="59" y="59" width="150" height="143">
<path d="M61.6208 61.5431C100.421 54.1415 142.076 65.4901 172.111 95.594C200.847 124.398 212.449 163.868 206.932 201.291L206.612 200.995C196.949 188.153 185.192 177.379 171.995 169.014L159.514 162.031C141.918 153.419 122.367 148.774 102.159 148.774C94.1463 148.774 86.2367 149.507 78.5147 150.926C61.4914 123.985 55.8636 91.8906 61.6261 61.5431" fill="white"/>
</mask>
<g mask="url(#mask12_4000_9632)">
<path d="M212.454 54.147H55.8643V201.297H212.454V54.147Z" fill="#3C6818"/>
</g>
<mask id="mask13_4000_9632" style="mask-type:luminance" maskUnits="userSpaceOnUse" x="63" y="61" width="144" height="136">
<path d="M205.338 196.924C209.524 160.114 196.892 123.48 170.591 97.1138C142.439 68.8946 102.561 56.4078 63.4468 63.3885C106.737 106.781 145.223 141.629 188.782 181.671C189.931 182.69 191.064 183.733 192.178 184.794C196.509 188.778 200.893 192.818 205.338 196.924Z" fill="white"/>
</mask>
<g mask="url(#mask13_4000_9632)">
<path d="M209.526 56.4109H63.4468V196.927H209.526V56.4109Z" fill="#3C6818"/>
</g>
<mask id="mask14_4000_9632" style="mask-type:luminance" maskUnits="userSpaceOnUse" x="159" y="0" width="106" height="202">
<path d="M210.151 0C242.808 22.2656 264.258 59.8161 264.258 102.391C264.258 144.966 244.617 179.26 214.316 201.812L214.297 201.375C216.523 185.447 215.81 169.492 212.38 154.226L208.479 140.442C202.112 121.88 191.564 104.739 177.274 90.4151C171.607 84.7342 165.498 79.6489 159.036 75.1778C166.003 44.0626 184.663 17.3789 210.148 0.0026472" fill="white"/>
</mask>
<g mask="url(#mask14_4000_9632)">
<path d="M264.255 0H159.036V201.809H264.255V0Z" fill="#3C6818"/>
</g>
<mask id="mask15_4000_9632" style="mask-type:luminance" maskUnits="userSpaceOnUse" x="211" y="1" width="53" height="196">
<path d="M217.881 196.527C246.807 173.468 263.719 138.609 263.719 101.323C263.719 61.4169 244.33 24.3191 211.749 1.53198C211.749 62.8994 214.382 114.819 216.935 174.005C217.028 175.54 217.094 177.081 217.133 178.622C217.384 184.509 217.635 190.473 217.881 196.527Z" fill="white"/>
</mask>
<g mask="url(#mask15_4000_9632)">
<path d="M263.722 1.53198H211.749V196.527H263.722V1.53198Z" fill="#3C6818"/>
</g>
</g>
<defs>
<clipPath id="clip0_4000_9632">
<rect width="420" height="421" fill="white"/>
</clipPath>
</defs>
</svg>
